<svg width="719" height="1024" viewBox="0 0 719 1024" fill="none" xmlns="http://www.w3.org/2000/svg">
<rect width="719" height="1024" fill="#FA4C05"/>
<path d="M292 0H722V270C722 325.228 677.228 370 622 370H292V0Z" fill="#FF8930"/>
<path d="M0 240H404C459.228 240 504 284.772 504 340V510H0V240Z" fill="#FF7A00"/>
<path d="M245 417H575C630.228 417 675 461.772 675 517V1024H245V417Z" fill="#FF8930"/>
<path d="M74 690C74 634.772 118.772 590 174 590H719V903H74V690Z" fill="#FF7A00"/>
<path d="M280 749C280 747.895 280.895 747 282 747H638C639.105 747 640 747.895 640 749V945C640 946.105 639.105 947 638 947H340C306.863 947 280 920.137 280 887V749Z" fill="white"/>
<path d="M439.073 814.95H423.473V821.85C424.14 821.117 425.073 820.517 426.273 820.05C427.473 819.583 428.773 819.35 430.173 819.35C432.673 819.35 434.74 819.917 436.373 821.05C438.04 822.183 439.256 823.65 440.023 825.45C440.79 827.25 441.173 829.2 441.173 831.3C441.173 835.2 440.073 838.3 437.873 840.6C435.673 842.867 432.573 844 428.573 844C425.906 844 423.59 843.55 421.623 842.65C419.656 841.717 418.14 840.433 417.073 838.8C416.006 837.167 415.423 835.283 415.323 833.15H423.673C423.873 834.183 424.356 835.05 425.123 835.75C425.89 836.417 426.94 836.75 428.273 836.75C429.84 836.75 431.006 836.25 431.773 835.25C432.54 834.25 432.923 832.917 432.923 831.25C432.923 829.617 432.523 828.367 431.723 827.5C430.923 826.633 429.756 826.2 428.223 826.2C427.09 826.2 426.156 826.483 425.423 827.05C424.69 827.583 424.206 828.3 423.973 829.2H415.723V807.45H439.073V814.95ZM445.893 825.25C445.893 819.517 446.993 815 449.193 811.7C451.426 808.4 455.009 806.75 459.943 806.75C464.876 806.75 468.443 808.4 470.643 811.7C472.876 815 473.993 819.517 473.993 825.25C473.993 831.05 472.876 835.6 470.643 838.9C468.443 842.2 464.876 843.85 459.943 843.85C455.009 843.85 451.426 842.2 449.193 838.9C446.993 835.6 445.893 831.05 445.893 825.25ZM465.593 825.25C465.593 821.883 465.226 819.3 464.493 817.5C463.759 815.667 462.243 814.75 459.943 814.75C457.643 814.75 456.126 815.667 455.393 817.5C454.659 819.3 454.293 821.883 454.293 825.25C454.293 827.517 454.426 829.4 454.693 830.9C454.959 832.367 455.493 833.567 456.293 834.5C457.126 835.4 458.343 835.85 459.943 835.85C461.543 835.85 462.743 835.4 463.543 834.5C464.376 833.567 464.926 832.367 465.193 830.9C465.459 829.4 465.593 827.517 465.593 825.25ZM478.51 825.25C478.51 819.517 479.61 815 481.81 811.7C484.043 808.4 487.626 806.75 492.56 806.75C497.493 806.75 501.06 808.4 503.26 811.7C505.493 815 506.61 819.517 506.61 825.25C506.61 831.05 505.493 835.6 503.26 838.9C501.06 842.2 497.493 843.85 492.56 843.85C487.626 843.85 484.043 842.2 481.81 838.9C479.61 835.6 478.51 831.05 478.51 825.25ZM498.21 825.25C498.21 821.883 497.843 819.3 497.11 817.5C496.376 815.667 494.86 814.75 492.56 814.75C490.26 814.75 488.743 815.667 488.01 817.5C487.276 819.3 486.91 821.883 486.91 825.25C486.91 827.517 487.043 829.4 487.31 830.9C487.576 832.367 488.11 833.567 488.91 834.5C489.743 835.4 490.96 835.85 492.56 835.85C494.16 835.85 495.36 835.4 496.16 834.5C496.993 833.567 497.543 832.367 497.81 830.9C498.076 829.4 498.21 827.517 498.21 825.25Z" fill="#FA4C05"/>
<path d="M362.02 892.224C360.548 892.224 359.226 891.968 358.052 891.456C356.9 890.923 355.994 890.197 355.332 889.28C354.671 888.341 354.33 887.264 354.308 886.048H357.412C357.519 887.093 357.946 887.979 358.692 888.704C359.46 889.408 360.57 889.76 362.02 889.76C363.407 889.76 364.495 889.419 365.284 888.736C366.095 888.032 366.5 887.136 366.5 886.048C366.5 885.195 366.266 884.501 365.796 883.968C365.327 883.435 364.74 883.029 364.036 882.752C363.332 882.475 362.383 882.176 361.188 881.856C359.716 881.472 358.532 881.088 357.636 880.704C356.762 880.32 356.004 879.723 355.364 878.912C354.746 878.08 354.436 876.971 354.436 875.584C354.436 874.368 354.746 873.291 355.364 872.352C355.983 871.413 356.847 870.688 357.956 870.176C359.087 869.664 360.378 869.408 361.828 869.408C363.919 869.408 365.626 869.931 366.948 870.976C368.292 872.021 369.05 873.408 369.22 875.136H366.02C365.914 874.283 365.466 873.536 364.676 872.896C363.887 872.235 362.842 871.904 361.54 871.904C360.324 871.904 359.332 872.224 358.564 872.864C357.796 873.483 357.412 874.357 357.412 875.488C357.412 876.299 357.636 876.96 358.084 877.472C358.554 877.984 359.119 878.379 359.78 878.656C360.463 878.912 361.412 879.211 362.628 879.552C364.1 879.957 365.284 880.363 366.18 880.768C367.076 881.152 367.844 881.76 368.484 882.592C369.124 883.403 369.444 884.512 369.444 885.92C369.444 887.008 369.156 888.032 368.58 888.992C368.004 889.952 367.151 890.731 366.02 891.328C364.89 891.925 363.556 892.224 362.02 892.224ZM389.73 882.56C389.73 883.115 389.698 883.701 389.634 884.32H375.618C375.724 886.048 376.311 887.403 377.378 888.384C378.466 889.344 379.778 889.824 381.314 889.824C382.572 889.824 383.618 889.536 384.45 888.96C385.303 888.363 385.9 887.573 386.242 886.592H389.378C388.908 888.277 387.97 889.653 386.562 890.72C385.154 891.765 383.404 892.288 381.314 892.288C379.65 892.288 378.156 891.915 376.834 891.168C375.532 890.421 374.508 889.365 373.762 888C373.015 886.613 372.642 885.013 372.642 883.2C372.642 881.387 373.004 879.797 373.73 878.432C374.455 877.067 375.468 876.021 376.77 875.296C378.092 874.549 379.607 874.176 381.314 874.176C382.978 874.176 384.45 874.539 385.73 875.264C387.01 875.989 387.991 876.992 388.674 878.272C389.378 879.531 389.73 880.96 389.73 882.56ZM386.722 881.952C386.722 880.843 386.476 879.893 385.986 879.104C385.495 878.293 384.823 877.685 383.97 877.28C383.138 876.853 382.21 876.64 381.186 876.64C379.714 876.64 378.455 877.109 377.41 878.048C376.386 878.987 375.799 880.288 375.65 881.952H386.722ZM396.485 868.32V892H393.573V868.32H396.485ZM417.448 882.56C417.448 883.115 417.416 883.701 417.352 884.32H403.336C403.443 886.048 404.03 887.403 405.096 888.384C406.184 889.344 407.496 889.824 409.032 889.824C410.291 889.824 411.336 889.536 412.168 888.96C413.022 888.363 413.619 887.573 413.96 886.592H417.096C416.627 888.277 415.688 889.653 414.28 890.72C412.872 891.765 411.123 892.288 409.032 892.288C407.368 892.288 405.875 891.915 404.552 891.168C403.251 890.421 402.227 889.365 401.48 888C400.734 886.613 400.36 885.013 400.36 883.2C400.36 881.387 400.723 879.797 401.448 878.432C402.174 877.067 403.187 876.021 404.488 875.296C405.811 874.549 407.326 874.176 409.032 874.176C410.696 874.176 412.168 874.539 413.448 875.264C414.728 875.989 415.71 876.992 416.392 878.272C417.096 879.531 417.448 880.96 417.448 882.56ZM414.44 881.952C414.44 880.843 414.195 879.893 413.704 879.104C413.214 878.293 412.542 877.685 411.688 877.28C410.856 876.853 409.928 876.64 408.904 876.64C407.432 876.64 406.174 877.109 405.128 878.048C404.104 878.987 403.518 880.288 403.368 881.952H414.44ZM420.204 883.2C420.204 881.387 420.567 879.808 421.292 878.464C422.017 877.099 423.02 876.043 424.3 875.296C425.601 874.549 427.084 874.176 428.748 874.176C430.903 874.176 432.673 874.699 434.06 875.744C435.468 876.789 436.396 878.24 436.844 880.096H433.708C433.409 879.029 432.823 878.187 431.948 877.568C431.095 876.949 430.028 876.64 428.748 876.64C427.084 876.64 425.74 877.216 424.716 878.368C423.692 879.499 423.18 881.109 423.18 883.2C423.18 885.312 423.692 886.944 424.716 888.096C425.74 889.248 427.084 889.824 428.748 889.824C430.028 889.824 431.095 889.525 431.948 888.928C432.801 888.331 433.388 887.477 433.708 886.368H436.844C436.375 888.16 435.436 889.6 434.028 890.688C432.62 891.755 430.86 892.288 428.748 892.288C427.084 892.288 425.601 891.915 424.3 891.168C423.02 890.421 422.017 889.365 421.292 888C420.567 886.635 420.204 885.035 420.204 883.2ZM442.234 871.616C441.679 871.616 441.21 871.424 440.826 871.04C440.442 870.656 440.25 870.187 440.25 869.632C440.25 869.077 440.442 868.608 440.826 868.224C441.21 867.84 441.679 867.648 442.234 867.648C442.767 867.648 443.215 867.84 443.578 868.224C443.962 868.608 444.154 869.077 444.154 869.632C444.154 870.187 443.962 870.656 443.578 871.04C443.215 871.424 442.767 871.616 442.234 871.616ZM443.642 874.464V892H440.73V874.464H443.642ZM456.253 892.288C454.61 892.288 453.117 891.915 451.773 891.168C450.45 890.421 449.405 889.365 448.637 888C447.89 886.613 447.517 885.013 447.517 883.2C447.517 881.408 447.901 879.829 448.669 878.464C449.458 877.077 450.525 876.021 451.869 875.296C453.213 874.549 454.717 874.176 456.381 874.176C458.045 874.176 459.549 874.549 460.893 875.296C462.237 876.021 463.293 877.067 464.061 878.432C464.85 879.797 465.245 881.387 465.245 883.2C465.245 885.013 464.839 886.613 464.029 888C463.239 889.365 462.162 890.421 460.797 891.168C459.431 891.915 457.917 892.288 456.253 892.288ZM456.253 889.728C457.298 889.728 458.279 889.483 459.197 888.992C460.114 888.501 460.85 887.765 461.405 886.784C461.981 885.803 462.269 884.608 462.269 883.2C462.269 881.792 461.991 880.597 461.437 879.616C460.882 878.635 460.157 877.909 459.261 877.44C458.365 876.949 457.394 876.704 456.349 876.704C455.282 876.704 454.301 876.949 453.405 877.44C452.53 877.909 451.826 878.635 451.293 879.616C450.759 880.597 450.493 881.792 450.493 883.2C450.493 884.629 450.749 885.835 451.261 886.816C451.794 887.797 452.498 888.533 453.373 889.024C454.247 889.493 455.207 889.728 456.253 889.728ZM477.617 874.144C479.751 874.144 481.479 874.795 482.801 876.096C484.124 877.376 484.785 879.232 484.785 881.664V892H481.905V882.08C481.905 880.331 481.468 878.997 480.593 878.08C479.719 877.141 478.524 876.672 477.009 876.672C475.473 876.672 474.247 877.152 473.329 878.112C472.433 879.072 471.985 880.469 471.985 882.304V892H469.073V874.464H471.985V876.96C472.561 876.064 473.34 875.371 474.321 874.88C475.324 874.389 476.423 874.144 477.617 874.144ZM488.454 883.168C488.454 881.376 488.817 879.808 489.542 878.464C490.267 877.099 491.259 876.043 492.518 875.296C493.798 874.549 495.217 874.176 496.774 874.176C498.31 874.176 499.643 874.507 500.774 875.168C501.905 875.829 502.747 876.661 503.302 877.664V874.464H506.246V892H503.302V888.736C502.726 889.76 501.862 890.613 500.71 891.296C499.579 891.957 498.257 892.288 496.742 892.288C495.185 892.288 493.777 891.904 492.518 891.136C491.259 890.368 490.267 889.291 489.542 887.904C488.817 886.517 488.454 884.939 488.454 883.168ZM503.302 883.2C503.302 881.877 503.035 880.725 502.502 879.744C501.969 878.763 501.243 878.016 500.326 877.504C499.43 876.971 498.438 876.704 497.35 876.704C496.262 876.704 495.27 876.96 494.374 877.472C493.478 877.984 492.763 878.731 492.23 879.712C491.697 880.693 491.43 881.845 491.43 883.168C491.43 884.512 491.697 885.685 492.23 886.688C492.763 887.669 493.478 888.427 494.374 888.96C495.27 889.472 496.262 889.728 497.35 889.728C498.438 889.728 499.43 889.472 500.326 888.96C501.243 888.427 501.969 887.669 502.502 886.688C503.035 885.685 503.302 884.523 503.302 883.2ZM510.079 883.168C510.079 881.376 510.442 879.808 511.167 878.464C511.892 877.099 512.884 876.043 514.143 875.296C515.423 874.549 516.852 874.176 518.431 874.176C519.796 874.176 521.066 874.496 522.239 875.136C523.412 875.755 524.308 876.576 524.927 877.6V868.32H527.871V892H524.927V888.704C524.351 889.749 523.498 890.613 522.367 891.296C521.236 891.957 519.914 892.288 518.399 892.288C516.842 892.288 515.423 891.904 514.143 891.136C512.884 890.368 511.892 889.291 511.167 887.904C510.442 886.517 510.079 884.939 510.079 883.168ZM524.927 883.2C524.927 881.877 524.66 880.725 524.127 879.744C523.594 878.763 522.868 878.016 521.951 877.504C521.055 876.971 520.063 876.704 518.975 876.704C517.887 876.704 516.895 876.96 515.999 877.472C515.103 877.984 514.388 878.731 513.855 879.712C513.322 880.693 513.055 881.845 513.055 883.168C513.055 884.512 513.322 885.685 513.855 886.688C514.388 887.669 515.103 888.427 515.999 888.96C516.895 889.472 517.887 889.728 518.975 889.728C520.063 889.728 521.055 889.472 521.951 888.96C522.868 888.427 523.594 887.669 524.127 886.688C524.66 885.685 524.927 884.523 524.927 883.2ZM540.44 892.288C538.797 892.288 537.304 891.915 535.96 891.168C534.637 890.421 533.592 889.365 532.824 888C532.077 886.613 531.704 885.013 531.704 883.2C531.704 881.408 532.088 879.829 532.856 878.464C533.645 877.077 534.712 876.021 536.056 875.296C537.4 874.549 538.904 874.176 540.568 874.176C542.232 874.176 543.736 874.549 545.08 875.296C546.424 876.021 547.48 877.067 548.248 878.432C549.037 879.797 549.432 881.387 549.432 883.2C549.432 885.013 549.027 886.613 548.216 888C547.427 889.365 546.349 890.421 544.984 891.168C543.619 891.915 542.104 892.288 540.44 892.288ZM540.44 889.728C541.485 889.728 542.467 889.483 543.384 888.992C544.301 888.501 545.037 887.765 545.592 886.784C546.168 885.803 546.456 884.608 546.456 883.2C546.456 881.792 546.179 880.597 545.624 879.616C545.069 878.635 544.344 877.909 543.448 877.44C542.552 876.949 541.581 876.704 540.536 876.704C539.469 876.704 538.488 876.949 537.592 877.44C536.717 877.909 536.013 878.635 535.48 879.616C534.947 880.597 534.68 881.792 534.68 883.2C534.68 884.629 534.936 885.835 535.448 886.816C535.981 887.797 536.685 888.533 537.56 889.024C538.435 889.493 539.395 889.728 540.44 889.728ZM559.469 892.288C558.125 892.288 556.92 892.064 555.853 891.616C554.786 891.147 553.944 890.507 553.325 889.696C552.706 888.864 552.365 887.915 552.301 886.848H555.309C555.394 887.723 555.8 888.437 556.525 888.992C557.272 889.547 558.242 889.824 559.437 889.824C560.546 889.824 561.421 889.579 562.061 889.088C562.701 888.597 563.021 887.979 563.021 887.232C563.021 886.464 562.68 885.899 561.997 885.536C561.314 885.152 560.258 884.779 558.829 884.416C557.528 884.075 556.461 883.733 555.629 883.392C554.818 883.029 554.114 882.507 553.517 881.824C552.941 881.12 552.653 880.203 552.653 879.072C552.653 878.176 552.92 877.355 553.453 876.608C553.986 875.861 554.744 875.275 555.725 874.848C556.706 874.4 557.826 874.176 559.085 874.176C561.026 874.176 562.594 874.667 563.789 875.648C564.984 876.629 565.624 877.973 565.709 879.68H562.797C562.733 878.763 562.36 878.027 561.677 877.472C561.016 876.917 560.12 876.64 558.989 876.64C557.944 876.64 557.112 876.864 556.493 877.312C555.874 877.76 555.565 878.347 555.565 879.072C555.565 879.648 555.746 880.128 556.109 880.512C556.493 880.875 556.962 881.173 557.517 881.408C558.093 881.621 558.882 881.867 559.885 882.144C561.144 882.485 562.168 882.827 562.957 883.168C563.746 883.488 564.418 883.979 564.973 884.64C565.549 885.301 565.848 886.165 565.869 887.232C565.869 888.192 565.602 889.056 565.069 889.824C564.536 890.592 563.778 891.2 562.797 891.648C561.837 892.075 560.728 892.288 559.469 892.288Z" fill="#5A5A5A"/>
<path d="M162 531C162 497.863 188.863 471 222 471H520C521.105 471 522 471.895 522 473V669C522 670.105 521.105 671 520 671H164C162.895 671 162 670.105 162 669V531Z" fill="white"/>
<path d="M259.473 571L252.173 557.75H250.123V571H241.573V535.9H255.923C258.689 535.9 261.039 536.383 262.973 537.35C264.939 538.317 266.406 539.65 267.373 541.35C268.339 543.017 268.823 544.883 268.823 546.95C268.823 549.283 268.156 551.367 266.823 553.2C265.523 555.033 263.589 556.333 261.023 557.1L269.123 571H259.473ZM250.123 551.7H255.423C256.989 551.7 258.156 551.317 258.923 550.55C259.723 549.783 260.123 548.7 260.123 547.3C260.123 545.967 259.723 544.917 258.923 544.15C258.156 543.383 256.989 543 255.423 543H250.123V551.7ZM300.74 560.8C300.74 562.633 300.257 564.333 299.29 565.9C298.357 567.433 296.957 568.7 295.09 569.7C293.257 570.667 291.073 571.2 288.54 571.3V575.35H285.34V571.25C281.807 570.95 278.957 569.9 276.79 568.1C274.623 566.267 273.473 563.783 273.34 560.65H282.44C282.64 562.65 283.607 563.933 285.34 564.5V556.6C282.74 555.933 280.657 555.283 279.09 554.65C277.557 554.017 276.207 553 275.04 551.6C273.873 550.2 273.29 548.283 273.29 545.85C273.29 542.817 274.407 540.383 276.64 538.55C278.907 536.717 281.807 535.683 285.34 535.45V531.4H288.54V535.45C292.04 535.717 294.807 536.733 296.84 538.5C298.873 540.267 300.007 542.717 300.24 545.85H291.09C290.89 544.05 290.04 542.883 288.54 542.35V550.1C291.307 550.867 293.44 551.55 294.94 552.15C296.44 552.75 297.773 553.75 298.94 555.15C300.14 556.517 300.74 558.4 300.74 560.8ZM282.34 545.45C282.34 546.283 282.59 546.983 283.09 547.55C283.623 548.117 284.373 548.617 285.34 549.05V542.1C284.407 542.267 283.673 542.633 283.14 543.2C282.607 543.733 282.34 544.483 282.34 545.45ZM288.54 564.65C289.54 564.483 290.323 564.083 290.89 563.45C291.49 562.817 291.79 562.033 291.79 561.1C291.79 560.233 291.507 559.533 290.94 559C290.407 558.433 289.607 557.95 288.54 557.55V564.65ZM305.95 564.15C307.083 563.25 307.6 562.833 307.5 562.9C310.767 560.2 313.333 557.983 315.2 556.25C317.1 554.517 318.7 552.7 320 550.8C321.3 548.9 321.95 547.05 321.95 545.25C321.95 543.883 321.633 542.817 321 542.05C320.367 541.283 319.417 540.9 318.15 540.9C316.883 540.9 315.883 541.383 315.15 542.35C314.45 543.283 314.1 544.617 314.1 546.35H305.85C305.917 543.517 306.517 541.15 307.65 539.25C308.817 537.35 310.333 535.95 312.2 535.05C314.1 534.15 316.2 533.7 318.5 533.7C322.467 533.7 325.45 534.717 327.45 536.75C329.483 538.783 330.5 541.433 330.5 544.7C330.5 548.267 329.283 551.583 326.85 554.65C324.417 557.683 321.317 560.65 317.55 563.55H331.05V570.5H305.95V564.15ZM339.664 571.4C338.164 571.4 336.931 570.967 335.964 570.1C335.031 569.2 334.564 568.1 334.564 566.8C334.564 565.467 335.031 564.35 335.964 563.45C336.931 562.55 338.164 562.1 339.664 562.1C341.131 562.1 342.331 562.55 343.264 563.45C344.231 564.35 344.714 565.467 344.714 566.8C344.714 568.1 344.231 569.2 343.264 570.1C342.331 570.967 341.131 571.4 339.664 571.4ZM348.926 552.25C348.926 546.517 350.026 542 352.226 538.7C354.459 535.4 358.042 533.75 362.976 533.75C367.909 533.75 371.476 535.4 373.676 538.7C375.909 542 377.026 546.517 377.026 552.25C377.026 558.05 375.909 562.6 373.676 565.9C371.476 569.2 367.909 570.85 362.976 570.85C358.042 570.85 354.459 569.2 352.226 565.9C350.026 562.6 348.926 558.05 348.926 552.25ZM368.626 552.25C368.626 548.883 368.259 546.3 367.526 544.5C366.792 542.667 365.276 541.75 362.976 541.75C360.676 541.75 359.159 542.667 358.426 544.5C357.692 546.3 357.326 548.883 357.326 552.25C357.326 554.517 357.459 556.4 357.726 557.9C357.992 559.367 358.526 560.567 359.326 561.5C360.159 562.4 361.376 562.85 362.976 562.85C364.576 562.85 365.776 562.4 366.576 561.5C367.409 560.567 367.959 559.367 368.226 557.9C368.492 556.4 368.626 554.517 368.626 552.25ZM381.543 552.25C381.543 546.517 382.643 542 384.843 538.7C387.076 535.4 390.66 533.75 395.593 533.75C400.526 533.75 404.093 535.4 406.293 538.7C408.526 542 409.643 546.517 409.643 552.25C409.643 558.05 408.526 562.6 406.293 565.9C404.093 569.2 400.526 570.85 395.593 570.85C390.66 570.85 387.076 569.2 384.843 565.9C382.643 562.6 381.543 558.05 381.543 552.25ZM401.243 552.25C401.243 548.883 400.876 546.3 400.143 544.5C399.41 542.667 397.893 541.75 395.593 541.75C393.293 541.75 391.776 542.667 391.043 544.5C390.31 546.3 389.943 548.883 389.943 552.25C389.943 554.517 390.076 556.4 390.343 557.9C390.61 559.367 391.143 560.567 391.943 561.5C392.776 562.4 393.993 562.85 395.593 562.85C397.193 562.85 398.393 562.4 399.193 561.5C400.026 560.567 400.576 559.367 400.843 557.9C401.11 556.4 401.243 554.517 401.243 552.25ZM414.16 552.25C414.16 546.517 415.26 542 417.46 538.7C419.693 535.4 423.277 533.75 428.21 533.75C433.143 533.75 436.71 535.4 438.91 538.7C441.143 542 442.26 546.517 442.26 552.25C442.26 558.05 441.143 562.6 438.91 565.9C436.71 569.2 433.143 570.85 428.21 570.85C423.277 570.85 419.693 569.2 417.46 565.9C415.26 562.6 414.16 558.05 414.16 552.25ZM433.86 552.25C433.86 548.883 433.493 546.3 432.76 544.5C432.027 542.667 430.51 541.75 428.21 541.75C425.91 541.75 424.393 542.667 423.66 544.5C422.927 546.3 422.56 548.883 422.56 552.25C422.56 554.517 422.693 556.4 422.96 557.9C423.227 559.367 423.76 560.567 424.56 561.5C425.393 562.4 426.61 562.85 428.21 562.85C429.81 562.85 431.01 562.4 431.81 561.5C432.643 560.567 433.193 559.367 433.46 557.9C433.727 556.4 433.86 554.517 433.86 552.25Z" fill="#FA4C05"/>
<path d="M281.252 596.696C283.684 596.696 285.785 597.155 287.556 598.072C289.348 598.968 290.713 600.259 291.652 601.944C292.612 603.629 293.092 605.613 293.092 607.896C293.092 610.179 292.612 612.163 291.652 613.848C290.713 615.512 289.348 616.792 287.556 617.688C285.785 618.563 283.684 619 281.252 619H274.308V596.696H281.252ZM281.252 616.6C284.132 616.6 286.329 615.843 287.844 614.328C289.358 612.792 290.116 610.648 290.116 607.896C290.116 605.123 289.348 602.957 287.812 601.4C286.297 599.843 284.11 599.064 281.252 599.064H277.22V616.6H281.252ZM312.933 609.56C312.933 610.115 312.901 610.701 312.837 611.32H298.821C298.927 613.048 299.514 614.403 300.581 615.384C301.669 616.344 302.981 616.824 304.517 616.824C305.775 616.824 306.821 616.536 307.653 615.96C308.506 615.363 309.103 614.573 309.445 613.592H312.581C312.111 615.277 311.173 616.653 309.765 617.72C308.357 618.765 306.607 619.288 304.517 619.288C302.853 619.288 301.359 618.915 300.037 618.168C298.735 617.421 297.711 616.365 296.965 615C296.218 613.613 295.845 612.013 295.845 610.2C295.845 608.387 296.207 606.797 296.933 605.432C297.658 604.067 298.671 603.021 299.973 602.296C301.295 601.549 302.81 601.176 304.517 601.176C306.181 601.176 307.653 601.539 308.933 602.264C310.213 602.989 311.194 603.992 311.877 605.272C312.581 606.531 312.933 607.96 312.933 609.56ZM309.925 608.952C309.925 607.843 309.679 606.893 309.189 606.104C308.698 605.293 308.026 604.685 307.173 604.28C306.341 603.853 305.413 603.64 304.389 603.64C302.917 603.64 301.658 604.109 300.613 605.048C299.589 605.987 299.002 607.288 298.853 608.952H309.925ZM328.22 604.728C328.817 603.683 329.692 602.829 330.844 602.168C331.996 601.507 333.308 601.176 334.78 601.176C336.358 601.176 337.777 601.549 339.036 602.296C340.294 603.043 341.286 604.099 342.012 605.464C342.737 606.808 343.1 608.376 343.1 610.168C343.1 611.939 342.737 613.517 342.012 614.904C341.286 616.291 340.284 617.368 339.004 618.136C337.745 618.904 336.337 619.288 334.78 619.288C333.265 619.288 331.932 618.957 330.78 618.296C329.649 617.635 328.796 616.792 328.22 615.768V619H325.308V595.32H328.22V604.728ZM340.124 610.168C340.124 608.845 339.857 607.693 339.324 606.712C338.79 605.731 338.065 604.984 337.148 604.472C336.252 603.96 335.26 603.704 334.172 603.704C333.105 603.704 332.113 603.971 331.196 604.504C330.3 605.016 329.574 605.773 329.02 606.776C328.486 607.757 328.22 608.899 328.22 610.2C328.22 611.523 328.486 612.685 329.02 613.688C329.574 614.669 330.3 615.427 331.196 615.96C332.113 616.472 333.105 616.728 334.172 616.728C335.26 616.728 336.252 616.472 337.148 615.96C338.065 615.427 338.79 614.669 339.324 613.688C339.857 612.685 340.124 611.512 340.124 610.168ZM354.581 619.288C352.938 619.288 351.445 618.915 350.101 618.168C348.778 617.421 347.733 616.365 346.965 615C346.218 613.613 345.845 612.013 345.845 610.2C345.845 608.408 346.229 606.829 346.997 605.464C347.786 604.077 348.853 603.021 350.197 602.296C351.541 601.549 353.045 601.176 354.709 601.176C356.373 601.176 357.877 601.549 359.221 602.296C360.565 603.021 361.621 604.067 362.389 605.432C363.178 606.797 363.573 608.387 363.573 610.2C363.573 612.013 363.167 613.613 362.357 615C361.567 616.365 360.49 617.421 359.125 618.168C357.759 618.915 356.245 619.288 354.581 619.288ZM354.581 616.728C355.626 616.728 356.607 616.483 357.525 615.992C358.442 615.501 359.178 614.765 359.733 613.784C360.309 612.803 360.597 611.608 360.597 610.2C360.597 608.792 360.319 607.597 359.765 606.616C359.21 605.635 358.485 604.909 357.589 604.44C356.693 603.949 355.722 603.704 354.677 603.704C353.61 603.704 352.629 603.949 351.733 604.44C350.858 604.909 350.154 605.635 349.621 606.616C349.087 607.597 348.821 608.792 348.821 610.2C348.821 611.629 349.077 612.835 349.589 613.816C350.122 614.797 350.826 615.533 351.701 616.024C352.575 616.493 353.535 616.728 354.581 616.728ZM370.314 595.32V619H367.402V595.32H370.314ZM381.485 619.288C380.141 619.288 378.935 619.064 377.869 618.616C376.802 618.147 375.959 617.507 375.341 616.696C374.722 615.864 374.381 614.915 374.317 613.848H377.325C377.41 614.723 377.815 615.437 378.541 615.992C379.287 616.547 380.258 616.824 381.453 616.824C382.562 616.824 383.437 616.579 384.077 616.088C384.717 615.597 385.037 614.979 385.037 614.232C385.037 613.464 384.695 612.899 384.013 612.536C383.33 612.152 382.274 611.779 380.845 611.416C379.543 611.075 378.477 610.733 377.645 610.392C376.834 610.029 376.13 609.507 375.533 608.824C374.957 608.12 374.669 607.203 374.669 606.072C374.669 605.176 374.935 604.355 375.469 603.608C376.002 602.861 376.759 602.275 377.741 601.848C378.722 601.4 379.842 601.176 381.101 601.176C383.042 601.176 384.61 601.667 385.805 602.648C386.999 603.629 387.639 604.973 387.725 606.68H384.813C384.749 605.763 384.375 605.027 383.693 604.472C383.031 603.917 382.135 603.64 381.005 603.64C379.959 603.64 379.127 603.864 378.509 604.312C377.89 604.76 377.581 605.347 377.581 606.072C377.581 606.648 377.762 607.128 378.125 607.512C378.509 607.875 378.978 608.173 379.533 608.408C380.109 608.621 380.898 608.867 381.901 609.144C383.159 609.485 384.183 609.827 384.973 610.168C385.762 610.488 386.434 610.979 386.989 611.64C387.565 612.301 387.863 613.165 387.885 614.232C387.885 615.192 387.618 616.056 387.085 616.824C386.551 617.592 385.794 618.2 384.813 618.648C383.853 619.075 382.743 619.288 381.485 619.288ZM390.907 610.168C390.907 608.376 391.27 606.808 391.995 605.464C392.721 604.099 393.713 603.043 394.971 602.296C396.251 601.549 397.67 601.176 399.227 601.176C400.763 601.176 402.097 601.507 403.227 602.168C404.358 602.829 405.201 603.661 405.755 604.664V601.464H408.699V619H405.755V615.736C405.179 616.76 404.315 617.613 403.163 618.296C402.033 618.957 400.71 619.288 399.195 619.288C397.638 619.288 396.23 618.904 394.971 618.136C393.713 617.368 392.721 616.291 391.995 614.904C391.27 613.517 390.907 611.939 390.907 610.168ZM405.755 610.2C405.755 608.877 405.489 607.725 404.955 606.744C404.422 605.763 403.697 605.016 402.779 604.504C401.883 603.971 400.891 603.704 399.803 603.704C398.715 603.704 397.723 603.96 396.827 604.472C395.931 604.984 395.217 605.731 394.683 606.712C394.15 607.693 393.883 608.845 393.883 610.168C393.883 611.512 394.15 612.685 394.683 613.688C395.217 614.669 395.931 615.427 396.827 615.96C397.723 616.472 398.715 616.728 399.803 616.728C400.891 616.728 401.883 616.472 402.779 615.96C403.697 615.427 404.422 614.669 404.955 613.688C405.489 612.685 405.755 611.523 405.755 610.2Z" fill="#5A5A5A"/>
<path d="M46 191C46 189.895 46.8954 189 48 189H444C445.105 189 446 189.895 446 191V309C446 353.183 410.183 389 366 389H48C46.8954 389 46 388.105 46 387V191Z" fill="white"/>
<path d="M186.852 275.35H178.152V284.25H170.052V275.35H161.352V267.7H170.052V258.75H178.152V267.7H186.852V275.35ZM210.099 262.35C209.832 261.117 209.365 260.2 208.699 259.6C208.032 258.967 207.082 258.65 205.849 258.65C203.949 258.65 202.582 259.483 201.749 261.15C200.915 262.783 200.482 265.383 200.449 268.95C201.182 267.783 202.232 266.867 203.599 266.2C204.999 265.533 206.532 265.2 208.199 265.2C211.465 265.2 214.082 266.233 216.049 268.3C218.049 270.367 219.049 273.25 219.049 276.95C219.049 279.383 218.549 281.517 217.549 283.35C216.582 285.183 215.149 286.617 213.249 287.65C211.382 288.683 209.165 289.2 206.599 289.2C201.465 289.2 197.899 287.6 195.899 284.4C193.899 281.167 192.899 276.533 192.899 270.5C192.899 264.167 193.949 259.467 196.049 256.4C198.182 253.3 201.582 251.75 206.249 251.75C208.749 251.75 210.849 252.25 212.549 253.25C214.282 254.217 215.582 255.5 216.449 257.1C217.349 258.7 217.882 260.45 218.049 262.35H210.099ZM206.149 271.95C204.715 271.95 203.515 272.383 202.549 273.25C201.615 274.083 201.149 275.283 201.149 276.85C201.149 278.45 201.582 279.7 202.449 280.6C203.349 281.5 204.615 281.95 206.249 281.95C207.715 281.95 208.865 281.517 209.699 280.65C210.565 279.75 210.999 278.533 210.999 277C210.999 275.433 210.582 274.2 209.749 273.3C208.915 272.4 207.715 271.95 206.149 271.95ZM228.735 289.4C227.235 289.4 226.001 288.967 225.035 288.1C224.101 287.2 223.635 286.1 223.635 284.8C223.635 283.467 224.101 282.35 225.035 281.45C226.001 280.55 227.235 280.1 228.735 280.1C230.201 280.1 231.401 280.55 232.335 281.45C233.301 282.35 233.785 283.467 233.785 284.8C233.785 286.1 233.301 287.2 232.335 288.1C231.401 288.967 230.201 289.4 228.735 289.4ZM237.996 270.25C237.996 264.517 239.096 260 241.296 256.7C243.529 253.4 247.113 251.75 252.046 251.75C256.979 251.75 260.546 253.4 262.746 256.7C264.979 260 266.096 264.517 266.096 270.25C266.096 276.05 264.979 280.6 262.746 283.9C260.546 287.2 256.979 288.85 252.046 288.85C247.113 288.85 243.529 287.2 241.296 283.9C239.096 280.6 237.996 276.05 237.996 270.25ZM257.696 270.25C257.696 266.883 257.329 264.3 256.596 262.5C255.863 260.667 254.346 259.75 252.046 259.75C249.746 259.75 248.229 260.667 247.496 262.5C246.763 264.3 246.396 266.883 246.396 270.25C246.396 272.517 246.529 274.4 246.796 275.9C247.063 277.367 247.596 278.567 248.396 279.5C249.229 280.4 250.446 280.85 252.046 280.85C253.646 280.85 254.846 280.4 255.646 279.5C256.479 278.567 257.029 277.367 257.296 275.9C257.563 274.4 257.696 272.517 257.696 270.25ZM270.613 270.25C270.613 264.517 271.713 260 273.913 256.7C276.147 253.4 279.73 251.75 284.663 251.75C289.597 251.75 293.163 253.4 295.363 256.7C297.597 260 298.713 264.517 298.713 270.25C298.713 276.05 297.597 280.6 295.363 283.9C293.163 287.2 289.597 288.85 284.663 288.85C279.73 288.85 276.147 287.2 273.913 283.9C271.713 280.6 270.613 276.05 270.613 270.25ZM290.313 270.25C290.313 266.883 289.947 264.3 289.213 262.5C288.48 260.667 286.963 259.75 284.663 259.75C282.363 259.75 280.847 260.667 280.113 262.5C279.38 264.3 279.013 266.883 279.013 270.25C279.013 272.517 279.147 274.4 279.413 275.9C279.68 277.367 280.213 278.567 281.013 279.5C281.847 280.4 283.063 280.85 284.663 280.85C286.263 280.85 287.463 280.4 288.263 279.5C289.097 278.567 289.647 277.367 289.913 275.9C290.18 274.4 290.313 272.517 290.313 270.25ZM303.23 270.25C303.23 264.517 304.33 260 306.53 256.7C308.764 253.4 312.347 251.75 317.28 251.75C322.214 251.75 325.78 253.4 327.98 256.7C330.214 260 331.33 264.517 331.33 270.25C331.33 276.05 330.214 280.6 327.98 283.9C325.78 287.2 322.214 288.85 317.28 288.85C312.347 288.85 308.764 287.2 306.53 283.9C304.33 280.6 303.23 276.05 303.23 270.25ZM322.93 270.25C322.93 266.883 322.564 264.3 321.83 262.5C321.097 260.667 319.58 259.75 317.28 259.75C314.98 259.75 313.464 260.667 312.73 262.5C311.997 264.3 311.63 266.883 311.63 270.25C311.63 272.517 311.764 274.4 312.03 275.9C312.297 277.367 312.83 278.567 313.63 279.5C314.464 280.4 315.68 280.85 317.28 280.85C318.88 280.85 320.08 280.4 320.88 279.5C321.714 278.567 322.264 277.367 322.53 275.9C322.797 274.4 322.93 272.517 322.93 270.25Z" fill="#FA4C05"/>
<path d="M170.985 306.696V329H168.073V306.696H170.985ZM184.492 311.144C186.626 311.144 188.354 311.795 189.676 313.096C190.999 314.376 191.66 316.232 191.66 318.664V329H188.78V319.08C188.78 317.331 188.343 315.997 187.468 315.08C186.594 314.141 185.399 313.672 183.884 313.672C182.348 313.672 181.122 314.152 180.204 315.112C179.308 316.072 178.86 317.469 178.86 319.304V329H175.948V311.464H178.86V313.96C179.436 313.064 180.215 312.371 181.196 311.88C182.199 311.389 183.298 311.144 184.492 311.144ZM202.625 329.288C201.281 329.288 200.076 329.064 199.009 328.616C197.942 328.147 197.1 327.507 196.481 326.696C195.862 325.864 195.521 324.915 195.457 323.848H198.465C198.55 324.723 198.956 325.437 199.681 325.992C200.428 326.547 201.398 326.824 202.593 326.824C203.702 326.824 204.577 326.579 205.217 326.088C205.857 325.597 206.177 324.979 206.177 324.232C206.177 323.464 205.836 322.899 205.153 322.536C204.47 322.152 203.414 321.779 201.985 321.416C200.684 321.075 199.617 320.733 198.785 320.392C197.974 320.029 197.27 319.507 196.673 318.824C196.097 318.12 195.809 317.203 195.809 316.072C195.809 315.176 196.076 314.355 196.609 313.608C197.142 312.861 197.9 312.275 198.881 311.848C199.862 311.4 200.982 311.176 202.241 311.176C204.182 311.176 205.75 311.667 206.945 312.648C208.14 313.629 208.78 314.973 208.865 316.68H205.953C205.889 315.763 205.516 315.027 204.833 314.472C204.172 313.917 203.276 313.64 202.145 313.64C201.1 313.64 200.268 313.864 199.649 314.312C199.03 314.76 198.721 315.347 198.721 316.072C198.721 316.648 198.902 317.128 199.265 317.512C199.649 317.875 200.118 318.173 200.673 318.408C201.249 318.621 202.038 318.867 203.041 319.144C204.3 319.485 205.324 319.827 206.113 320.168C206.902 320.488 207.574 320.979 208.129 321.64C208.705 322.301 209.004 323.165 209.025 324.232C209.025 325.192 208.758 326.056 208.225 326.824C207.692 327.592 206.934 328.2 205.953 328.648C204.993 329.075 203.884 329.288 202.625 329.288ZM212.048 320.2C212.048 318.387 212.411 316.808 213.136 315.464C213.861 314.099 214.864 313.043 216.144 312.296C217.445 311.549 218.928 311.176 220.592 311.176C222.747 311.176 224.517 311.699 225.904 312.744C227.312 313.789 228.24 315.24 228.688 317.096H225.552C225.253 316.029 224.667 315.187 223.792 314.568C222.939 313.949 221.872 313.64 220.592 313.64C218.928 313.64 217.584 314.216 216.56 315.368C215.536 316.499 215.024 318.109 215.024 320.2C215.024 322.312 215.536 323.944 216.56 325.096C217.584 326.248 218.928 326.824 220.592 326.824C221.872 326.824 222.939 326.525 223.792 325.928C224.645 325.331 225.232 324.477 225.552 323.368H228.688C228.219 325.16 227.28 326.6 225.872 327.688C224.464 328.755 222.704 329.288 220.592 329.288C218.928 329.288 217.445 328.915 216.144 328.168C214.864 327.421 213.861 326.365 213.136 325C212.411 323.635 212.048 322.035 212.048 320.2ZM235.485 314.312C235.997 313.309 236.723 312.531 237.661 311.976C238.621 311.421 239.784 311.144 241.149 311.144V314.152H240.381C237.117 314.152 235.485 315.923 235.485 319.464V329H232.573V311.464H235.485V314.312ZM246.015 308.616C245.46 308.616 244.991 308.424 244.607 308.04C244.223 307.656 244.031 307.187 244.031 306.632C244.031 306.077 244.223 305.608 244.607 305.224C244.991 304.84 245.46 304.648 246.015 304.648C246.548 304.648 246.996 304.84 247.359 305.224C247.743 305.608 247.935 306.077 247.935 306.632C247.935 307.187 247.743 307.656 247.359 308.04C246.996 308.424 246.548 308.616 246.015 308.616ZM247.423 311.464V329H244.511V311.464H247.423ZM259.842 326.824C261.122 326.824 262.189 326.525 263.042 325.928C263.895 325.331 264.482 324.477 264.802 323.368H267.938C267.511 325.032 266.669 326.397 265.41 327.464C264.173 328.509 262.615 329.107 260.738 329.256V330.856C261.997 330.835 262.999 331.101 263.746 331.656C264.493 332.211 264.866 333 264.866 334.024C264.866 335.027 264.503 335.827 263.778 336.424C263.053 337.021 262.114 337.32 260.962 337.32H257.282V335.432H260.386C261.09 335.432 261.602 335.325 261.922 335.112C262.263 334.899 262.434 334.536 262.434 334.024C262.434 333.533 262.263 333.181 261.922 332.968C261.602 332.755 261.09 332.648 260.386 332.648H258.786V329.224C257.314 329.075 256.013 328.616 254.882 327.848C253.751 327.059 252.866 326.013 252.226 324.712C251.607 323.389 251.298 321.885 251.298 320.2C251.298 318.387 251.661 316.808 252.386 315.464C253.111 314.099 254.114 313.043 255.394 312.296C256.695 311.549 258.178 311.176 259.842 311.176C261.997 311.176 263.767 311.699 265.154 312.744C266.562 313.789 267.49 315.24 267.938 317.096H264.802C264.503 316.029 263.917 315.187 263.042 314.568C262.189 313.949 261.122 313.64 259.842 313.64C258.178 313.64 256.834 314.216 255.81 315.368C254.786 316.499 254.274 318.109 254.274 320.2C254.274 322.312 254.786 323.944 255.81 325.096C256.834 326.248 258.178 326.824 259.842 326.824ZM279.471 329.288C277.829 329.288 276.335 328.915 274.991 328.168C273.669 327.421 272.623 326.365 271.855 325C271.109 323.613 270.735 322.013 270.735 320.2C270.735 318.408 271.119 316.829 271.887 315.464C272.677 314.077 273.743 313.021 275.087 312.296C276.431 311.549 277.935 311.176 279.599 311.176C281.263 311.176 282.767 311.549 284.111 312.296C285.455 313.021 286.511 314.067 287.279 315.432C288.069 316.797 288.463 318.387 288.463 320.2C288.463 322.013 288.058 323.613 287.247 325C286.458 326.365 285.381 327.421 284.015 328.168C282.65 328.915 281.135 329.288 279.471 329.288ZM279.471 326.728C280.517 326.728 281.498 326.483 282.415 325.992C283.333 325.501 284.069 324.765 284.623 323.784C285.199 322.803 285.487 321.608 285.487 320.2C285.487 318.792 285.21 317.597 284.655 316.616C284.101 315.635 283.375 314.909 282.479 314.44C281.583 313.949 280.613 313.704 279.567 313.704C278.501 313.704 277.519 313.949 276.623 314.44C275.749 314.909 275.045 315.635 274.511 316.616C273.978 317.597 273.711 318.792 273.711 320.2C273.711 321.629 273.967 322.835 274.479 323.816C275.013 324.797 275.717 325.533 276.591 326.024C277.466 326.493 278.426 326.728 279.471 326.728ZM274.927 309.352C275.077 308.264 275.429 307.432 275.983 306.856C276.559 306.28 277.274 305.992 278.127 305.992C278.533 305.992 278.874 306.067 279.151 306.216C279.45 306.344 279.802 306.536 280.207 306.792C280.506 307.005 280.773 307.176 281.007 307.304C281.242 307.411 281.498 307.464 281.775 307.464C282.138 307.464 282.447 307.347 282.703 307.112C282.959 306.877 283.119 306.536 283.183 306.088H284.847C284.719 307.155 284.367 307.976 283.791 308.552C283.215 309.128 282.501 309.416 281.647 309.416C281.242 309.416 280.879 309.352 280.559 309.224C280.261 309.075 279.919 308.861 279.535 308.584C279.194 308.371 278.917 308.211 278.703 308.104C278.511 307.997 278.277 307.944 277.999 307.944C277.637 307.944 277.327 308.061 277.071 308.296C276.837 308.531 276.687 308.883 276.623 309.352H274.927ZM308.292 319.56C308.292 320.115 308.26 320.701 308.196 321.32H294.18C294.287 323.048 294.873 324.403 295.94 325.384C297.028 326.344 298.34 326.824 299.876 326.824C301.135 326.824 302.18 326.536 303.012 325.96C303.865 325.363 304.463 324.573 304.804 323.592H307.94C307.471 325.277 306.532 326.653 305.124 327.72C303.716 328.765 301.967 329.288 299.876 329.288C298.212 329.288 296.719 328.915 295.396 328.168C294.095 327.421 293.071 326.365 292.324 325C291.577 323.613 291.204 322.013 291.204 320.2C291.204 318.387 291.567 316.797 292.292 315.432C293.017 314.067 294.031 313.021 295.332 312.296C296.655 311.549 298.169 311.176 299.876 311.176C301.54 311.176 303.012 311.539 304.292 312.264C305.572 312.989 306.553 313.992 307.236 315.272C307.94 316.531 308.292 317.96 308.292 319.56ZM305.284 318.952C305.284 317.843 305.039 316.893 304.548 316.104C304.057 315.293 303.385 314.685 302.532 314.28C301.7 313.853 300.772 313.64 299.748 313.64C298.276 313.64 297.017 314.109 295.972 315.048C294.948 315.987 294.361 317.288 294.212 318.952H305.284ZM318.344 329.288C317 329.288 315.795 329.064 314.728 328.616C313.661 328.147 312.819 327.507 312.2 326.696C311.581 325.864 311.24 324.915 311.176 323.848H314.184C314.269 324.723 314.675 325.437 315.4 325.992C316.147 326.547 317.117 326.824 318.312 326.824C319.421 326.824 320.296 326.579 320.936 326.088C321.576 325.597 321.896 324.979 321.896 324.232C321.896 323.464 321.555 322.899 320.872 322.536C320.189 322.152 319.133 321.779 317.704 321.416C316.403 321.075 315.336 320.733 314.504 320.392C313.693 320.029 312.989 319.507 312.392 318.824C311.816 318.12 311.528 317.203 311.528 316.072C311.528 315.176 311.795 314.355 312.328 313.608C312.861 312.861 313.619 312.275 314.6 311.848C315.581 311.4 316.701 311.176 317.96 311.176C319.901 311.176 321.469 311.667 322.664 312.648C323.859 313.629 324.499 314.973 324.584 316.68H321.672C321.608 315.763 321.235 315.027 320.552 314.472C319.891 313.917 318.995 313.64 317.864 313.64C316.819 313.64 315.987 313.864 315.368 314.312C314.749 314.76 314.44 315.347 314.44 316.072C314.44 316.648 314.621 317.128 314.984 317.512C315.368 317.875 315.837 318.173 316.392 318.408C316.968 318.621 317.757 318.867 318.76 319.144C320.019 319.485 321.043 319.827 321.832 320.168C322.621 320.488 323.293 320.979 323.848 321.64C324.424 322.301 324.723 323.165 324.744 324.232C324.744 325.192 324.477 326.056 323.944 326.824C323.411 327.592 322.653 328.2 321.672 328.648C320.712 329.075 319.603 329.288 318.344 329.288Z" fill="#5A5A5A"/>
<path d="M38.902 124.246C40.694 124.33 42.542 124.344 44.446 124.288V124.372C44.502 125.268 44.516 126.206 44.488 127.186C44.46 128.138 44.334 129.034 44.11 129.874C41.254 129.846 38.342 129.888 35.374 130C32.434 130.084 29.606 130.014 26.89 129.79C26.89 127.354 26.862 124.946 26.806 122.566C26.75 120.158 26.708 117.764 26.68 115.384C26.652 113.004 26.652 110.624 26.68 108.244C26.708 105.864 26.792 103.47 26.932 101.062C28.024 101.006 29.2 100.964 30.46 100.936C31.748 100.88 33.036 100.838 34.324 100.81C35.612 100.782 36.858 100.754 38.062 100.726C39.266 100.698 40.33 100.684 41.254 100.684C42.178 100.684 42.92 100.698 43.48 100.726C44.04 100.754 44.32 100.782 44.32 100.81C44.46 101.79 44.488 102.784 44.404 103.792C44.348 104.8 44.32 105.794 44.32 106.774V106.816C43.424 107.012 42.514 107.138 41.59 107.194C40.694 107.222 39.784 107.236 38.86 107.236C37.936 107.208 37.012 107.194 36.088 107.194C35.164 107.194 34.24 107.236 33.316 107.32H33.19L33.148 107.362C33.176 108.174 33.134 109.014 33.022 109.882C32.938 110.722 32.994 111.52 33.19 112.276L33.232 112.318C34.072 112.374 34.926 112.402 35.794 112.402C36.662 112.402 37.53 112.416 38.398 112.444V112.486C38.538 113.438 38.58 114.39 38.524 115.342C38.468 116.294 38.454 117.288 38.482 118.324C38.062 118.436 37.586 118.506 37.054 118.534C36.522 118.534 36.004 118.534 35.5 118.534C35.024 118.534 34.59 118.548 34.198 118.576C33.806 118.604 33.54 118.674 33.4 118.786C33.26 119.598 33.204 120.508 33.232 121.516C33.288 122.524 33.344 123.364 33.4 124.036L33.442 124.078C35.29 124.078 37.11 124.134 38.902 124.246ZM52.2767 110.218C52.2767 110.526 52.2907 110.876 52.3187 111.268C52.4587 111.184 52.6267 111.086 52.8227 110.974C53.0467 110.862 53.2287 110.75 53.3687 110.638C53.9567 110.218 54.6147 109.882 55.3427 109.63C56.0707 109.378 56.8127 109.238 57.5687 109.21C58.3527 109.182 59.1087 109.266 59.8367 109.462C60.5647 109.658 61.2227 110.008 61.8107 110.512C62.0907 110.764 62.3007 111.296 62.4407 112.108C62.6087 112.892 62.7067 113.844 62.7347 114.964C62.7907 116.084 62.8047 117.316 62.7767 118.66C62.7767 119.976 62.7627 121.32 62.7347 122.692C62.7067 124.036 62.6787 125.338 62.6507 126.598C62.6227 127.858 62.6367 128.964 62.6927 129.916C61.7127 130.056 60.8307 130.112 60.0467 130.084C59.2907 130.084 58.4227 130.084 57.4427 130.084C57.3867 129.44 57.3587 128.712 57.3587 127.9C57.3587 127.088 57.3587 126.248 57.3587 125.38C57.3867 124.512 57.3867 123.644 57.3587 122.776C57.3587 121.908 57.3307 121.096 57.2747 120.34C57.2467 120.004 57.2187 119.64 57.1907 119.248C57.1627 118.828 57.1067 118.422 57.0227 118.03C56.9667 117.638 56.8687 117.288 56.7287 116.98C56.6167 116.672 56.4487 116.434 56.2247 116.266C56.1967 116.238 56.1687 116.224 56.1407 116.224C56.1127 116.224 56.0847 116.21 56.0567 116.182C55.8327 116.07 55.4967 115.986 55.0487 115.93C54.6287 115.846 54.2087 115.874 53.7887 116.014C53.3687 116.126 52.9907 116.378 52.6547 116.77C52.3187 117.134 52.1227 117.694 52.0667 118.45C52.0107 119.43 51.9967 120.396 52.0247 121.348C52.0527 122.272 52.0807 123.21 52.1087 124.162C52.1647 125.086 52.1927 126.01 52.1927 126.934C52.1927 127.858 52.1367 128.782 52.0247 129.706V129.874C51.5487 130.014 51.1287 130.098 50.7647 130.126C50.4287 130.154 50.0787 130.154 49.7147 130.126C49.3507 130.126 48.9447 130.112 48.4967 130.084C48.0487 130.056 47.4887 130.07 46.8167 130.126C46.8167 126.682 46.7747 123.238 46.6907 119.794C46.6347 116.35 46.6627 112.78 46.7747 109.084C47.1107 109.112 47.3907 109.14 47.6147 109.168C47.8387 109.168 48.0487 109.168 48.2447 109.168C48.4407 109.168 48.6507 109.168 48.8747 109.168C49.0987 109.14 49.3787 109.112 49.7147 109.084C49.8267 109.084 50.0227 109.07 50.3027 109.042C50.5827 108.986 50.8627 108.944 51.1427 108.916C51.4227 108.888 51.6747 108.888 51.8987 108.916C52.1227 108.916 52.2347 108.958 52.2347 109.042C52.2907 109.518 52.3047 109.91 52.2767 110.218ZM71.7309 101.314C72.2069 101.342 72.6829 101.328 73.1589 101.272V106.9C73.1589 107.264 73.1589 107.642 73.1589 108.034C73.1869 108.426 73.2009 108.832 73.2009 109.252C74.0689 109.224 74.9789 109.182 75.9309 109.126C76.9109 109.07 78.1149 109 79.5429 108.916C79.7389 109.14 79.8509 109.476 79.8789 109.924C79.9069 110.344 79.9069 110.806 79.8789 111.31C79.8509 111.814 79.8089 112.332 79.7529 112.864C79.7249 113.368 79.7389 113.802 79.7949 114.166H73.2849C73.2849 115.678 73.2849 117.162 73.2849 118.618C73.2849 120.046 73.2989 121.39 73.3269 122.65C73.6069 123.042 74.0129 123.35 74.5449 123.574C75.0769 123.798 75.6509 123.98 76.2669 124.12C76.8829 124.232 77.4989 124.302 78.1149 124.33C78.7589 124.358 79.3189 124.358 79.7949 124.33C79.8509 124.722 79.9069 125.156 79.9629 125.632C80.0189 126.108 80.0609 126.598 80.0889 127.102C80.1169 127.606 80.1029 128.11 80.0469 128.614C80.0189 129.118 79.9349 129.58 79.7949 130C78.6749 130.056 77.5129 130.056 76.3089 130C75.1049 129.916 73.9709 129.748 72.9069 129.496C71.8429 129.244 70.8909 128.866 70.0509 128.362C69.2389 127.858 68.6509 127.172 68.2869 126.304C67.9229 124.148 67.7129 122.118 67.6569 120.214C67.6009 118.282 67.5869 116.294 67.6149 114.25C67.1669 114.278 66.6909 114.292 66.1869 114.292C65.7109 114.292 65.1789 114.292 64.5909 114.292L64.7169 109.168C65.2769 109.196 65.7949 109.21 66.2709 109.21C66.7749 109.21 67.2509 109.21 67.6989 109.21C67.6989 108.594 67.6849 107.936 67.6569 107.236C67.6289 106.508 67.6149 105.78 67.6149 105.052C67.6149 104.324 67.6149 103.624 67.6149 102.952C67.6429 102.28 67.6849 101.678 67.7409 101.146C68.1049 101.09 68.4969 101.076 68.9169 101.104C69.3649 101.132 69.8269 101.174 70.3029 101.23C70.7789 101.258 71.2549 101.286 71.7309 101.314ZM87.5951 110.05C87.6231 110.134 87.6371 110.274 87.6371 110.47C87.7491 110.414 88.0011 110.302 88.3931 110.134C88.8131 109.966 89.2191 109.812 89.6111 109.672C90.1431 109.504 90.7451 109.378 91.4171 109.294C92.0891 109.182 92.7191 109.112 93.3071 109.084C93.8951 109.056 94.3851 109.056 94.7771 109.084C95.1971 109.084 95.4071 109.098 95.4071 109.126C95.4071 110.078 95.3931 110.918 95.3651 111.646C95.3651 112.374 95.3651 113.032 95.3651 113.62C95.3651 114.18 95.3651 114.698 95.3651 115.174C95.3651 115.65 95.3791 116.098 95.4071 116.518L95.0291 116.392C94.8891 116.336 94.7351 116.294 94.5671 116.266C94.4271 116.21 94.2871 116.154 94.1471 116.098C93.8111 116.014 93.4611 115.944 93.0971 115.888C92.7611 115.832 92.5791 115.804 92.5511 115.804C91.7951 115.72 91.0951 115.678 90.4511 115.678C89.8351 115.678 89.2891 115.776 88.8131 115.972C88.3651 116.168 88.0151 116.476 87.7631 116.896C87.5111 117.316 87.3991 117.918 87.4271 118.702C87.4551 119.682 87.4831 120.606 87.5111 121.474C87.5391 122.342 87.5531 123.224 87.5531 124.12C87.5531 124.988 87.5531 125.884 87.5531 126.808C87.5811 127.704 87.5951 128.67 87.5951 129.706V129.874C87.1191 130.014 86.6851 130.098 86.2931 130.126C85.9011 130.154 85.4951 130.154 85.0751 130.126C84.6551 130.126 84.1931 130.112 83.6891 130.084C83.2131 130.056 82.6391 130.07 81.9671 130.126C81.9671 126.682 81.9251 123.238 81.8411 119.794C81.7851 116.35 81.8131 112.78 81.9251 109.084C82.2611 109.112 82.5411 109.14 82.7651 109.168C82.9891 109.168 83.1991 109.168 83.3951 109.168C83.5911 109.168 83.8011 109.168 84.0251 109.168C84.2491 109.14 84.5291 109.112 84.8651 109.084C84.9771 109.084 85.1731 109.07 85.4531 109.042C85.7611 109.014 86.0691 108.986 86.3771 108.958C86.7131 108.93 86.9931 108.93 87.2171 108.958C87.4691 108.958 87.5951 108.986 87.5951 109.042C87.5951 109.266 87.5951 109.434 87.5951 109.546C87.5951 109.658 87.5951 109.756 87.5951 109.84C87.5951 109.896 87.5951 109.966 87.5951 110.05ZM111.878 108.958C112.578 108.986 113.376 109.028 114.272 109.084C114.3 109.252 114.314 109.42 114.314 109.588C114.342 109.756 114.356 109.924 114.356 110.092V110.512C114.272 113.536 114.286 116.518 114.398 119.458C114.51 122.37 114.468 125.324 114.272 128.32C114.272 128.684 114.258 129.048 114.23 129.412C114.23 129.776 114.062 129.986 113.726 130.042H113.222C112.774 130.042 112.312 130.028 111.836 130C111.388 129.944 110.94 129.916 110.492 129.916C110.184 129.916 109.876 129.944 109.568 130C109.288 130.028 108.994 130.042 108.686 130.042C108.49 129.986 108.35 129.874 108.266 129.706C108.21 129.538 108.182 129.342 108.182 129.118C108.182 128.81 108.21 128.558 108.266 128.362C108.322 128.166 108.35 127.928 108.35 127.648C107.678 128.32 106.824 128.894 105.788 129.37C104.78 129.846 103.786 130.084 102.806 130.084C101.714 130.084 100.776 129.706 99.992 128.95C99.236 128.194 98.606 127.256 98.102 126.136C97.598 125.016 97.22 123.798 96.968 122.482C96.744 121.166 96.632 119.948 96.632 118.828C96.632 117.428 96.814 116.14 97.178 114.964C97.542 113.788 98.032 112.78 98.648 111.94C99.292 111.072 100.048 110.4 100.916 109.924C101.784 109.42 102.708 109.154 103.688 109.126C104.192 109.126 104.654 109.14 105.074 109.168C105.522 109.168 105.928 109.238 106.292 109.378C106.656 109.49 106.978 109.686 107.258 109.966C107.538 110.218 107.776 110.582 107.972 111.058C107.944 110.61 107.958 110.232 108.014 109.924C108.098 109.588 108.14 109.252 108.14 108.916C108.14 108.888 108.224 108.874 108.392 108.874C108.588 108.846 108.798 108.846 109.022 108.874C109.246 108.874 109.47 108.874 109.694 108.874C109.918 108.874 110.072 108.874 110.156 108.874C110.632 108.902 111.206 108.93 111.878 108.958ZM103.226 115.594C102.582 116.126 102.19 116.742 102.05 117.442C101.938 117.806 101.868 118.184 101.84 118.576C101.812 118.94 101.798 119.304 101.798 119.668C101.798 120.928 102.12 122.006 102.764 122.902C103.436 123.77 104.36 124.204 105.536 124.204C106.236 124.204 106.754 124.092 107.09 123.868C107.454 123.616 107.706 123.28 107.846 122.86C108.014 122.412 108.098 121.88 108.098 121.264C108.126 120.62 108.14 119.906 108.14 119.122C108.14 118.142 108.126 117.372 108.098 116.812C108.098 116.224 108.028 115.776 107.888 115.468C107.776 115.16 107.566 114.964 107.258 114.88C106.978 114.796 106.544 114.754 105.956 114.754C104.808 114.754 103.898 115.034 103.226 115.594ZM140.261 108.958C140.961 108.986 141.759 109.028 142.655 109.084C142.683 109.252 142.697 109.42 142.697 109.588C142.725 109.756 142.739 109.924 142.739 110.092V110.512C142.655 113.536 142.669 116.518 142.781 119.458C142.893 122.37 142.851 125.324 142.655 128.32C142.655 128.684 142.641 129.048 142.613 129.412C142.613 129.776 142.445 129.986 142.109 130.042H141.605C141.157 130.042 140.695 130.028 140.219 130C139.771 129.944 139.323 129.916 138.875 129.916C138.567 129.916 138.259 129.944 137.951 130C137.671 130.028 137.377 130.042 137.069 130.042C136.873 129.986 136.733 129.874 136.649 129.706C136.593 129.538 136.565 129.342 136.565 129.118C136.565 128.81 136.593 128.558 136.649 128.362C136.705 128.166 136.733 127.928 136.733 127.648C136.061 128.32 135.207 128.894 134.171 129.37C133.163 129.846 132.169 130.084 131.189 130.084C130.097 130.084 129.159 129.706 128.375 128.95C127.619 128.194 126.989 127.256 126.485 126.136C125.981 125.016 125.603 123.798 125.351 122.482C125.127 121.166 125.015 119.948 125.015 118.828C125.015 117.428 125.197 116.14 125.561 114.964C125.925 113.788 126.415 112.78 127.031 111.94C127.675 111.072 128.431 110.4 129.299 109.924C130.167 109.42 131.091 109.154 132.071 109.126C132.575 109.126 133.037 109.14 133.457 109.168C133.905 109.168 134.311 109.238 134.675 109.378C135.039 109.49 135.361 109.686 135.641 109.966C135.921 110.218 136.159 110.582 136.355 111.058C136.327 110.61 136.341 110.232 136.397 109.924C136.481 109.588 136.523 109.252 136.523 108.916C136.523 108.888 136.607 108.874 136.775 108.874C136.971 108.846 137.181 108.846 137.405 108.874C137.629 108.874 137.853 108.874 138.077 108.874C138.301 108.874 138.455 108.874 138.539 108.874C139.015 108.902 139.589 108.93 140.261 108.958ZM131.609 115.594C130.965 116.126 130.573 116.742 130.433 117.442C130.321 117.806 130.251 118.184 130.223 118.576C130.195 118.94 130.181 119.304 130.181 119.668C130.181 120.928 130.503 122.006 131.147 122.902C131.819 123.77 132.743 124.204 133.919 124.204C134.619 124.204 135.137 124.092 135.473 123.868C135.837 123.616 136.089 123.28 136.229 122.86C136.397 122.412 136.481 121.88 136.481 121.264C136.509 120.62 136.523 119.906 136.523 119.122C136.523 118.142 136.509 117.372 136.481 116.812C136.481 116.224 136.411 115.776 136.271 115.468C136.159 115.16 135.949 114.964 135.641 114.88C135.361 114.796 134.927 114.754 134.339 114.754C133.191 114.754 132.281 115.034 131.609 115.594ZM148.517 108.874C149.161 108.902 149.931 108.902 150.827 108.874H151.541V109C151.513 112.388 151.443 115.846 151.331 119.374C151.247 122.902 151.303 126.36 151.499 129.748C151.359 129.916 151.009 130 150.449 130C149.889 130.028 149.273 130.028 148.601 130C147.957 130 147.341 129.986 146.753 129.958C146.165 129.93 145.773 129.944 145.577 130C145.717 128.236 145.773 126.444 145.745 124.624C145.745 122.804 145.717 120.998 145.661 119.206C145.605 117.414 145.577 115.65 145.577 113.914C145.577 112.15 145.661 110.442 145.829 108.79V108.748C145.941 108.72 146.123 108.72 146.375 108.748C146.655 108.776 146.865 108.79 147.005 108.79C147.369 108.818 147.873 108.846 148.517 108.874ZM145.703 102.994C145.647 102.098 145.633 101.006 145.661 99.718L151.373 99.844C151.373 100.012 151.373 100.32 151.373 100.768C151.401 101.188 151.415 101.664 151.415 102.196C151.443 102.7 151.457 103.232 151.457 103.792C151.485 104.324 151.499 104.8 151.499 105.22C151.387 105.388 151.121 105.5 150.701 105.556C150.309 105.612 149.833 105.64 149.273 105.64C148.741 105.612 148.167 105.584 147.551 105.556C146.935 105.5 146.361 105.486 145.829 105.514C145.829 104.702 145.787 103.862 145.703 102.994ZM168.351 136.762C168.351 137.07 168.337 137.504 168.309 138.064V138.526C168.309 138.554 168.113 138.582 167.721 138.61C167.357 138.666 166.895 138.694 166.335 138.694C165.803 138.722 165.229 138.722 164.613 138.694C163.997 138.694 163.465 138.652 163.017 138.568V135.796C163.017 133.472 162.989 131.148 162.933 128.824C162.877 126.5 162.821 124.218 162.765 121.978C162.737 119.71 162.709 117.498 162.681 115.342C162.681 113.158 162.709 111.058 162.765 109.042C163.633 109.042 164.585 109.028 165.621 109C166.657 108.944 167.595 108.972 168.435 109.084C168.463 109.14 168.477 109.238 168.477 109.378C168.477 109.658 168.477 109.882 168.477 110.05C168.505 110.218 168.519 110.456 168.519 110.764C168.575 110.904 168.631 111.016 168.687 111.1C168.771 111.156 168.855 111.1 168.939 110.932C169.359 110.092 169.919 109.56 170.619 109.336C171.319 109.084 172.061 109.014 172.845 109.126C174.441 109.238 175.701 109.658 176.625 110.386C177.549 111.086 178.235 111.996 178.683 113.116C179.159 114.208 179.467 115.44 179.607 116.812C179.747 118.184 179.845 119.57 179.901 120.97C179.901 121.95 179.831 122.902 179.691 123.826C179.579 124.75 179.383 125.604 179.103 126.388C178.851 127.144 178.501 127.802 178.053 128.362C177.633 128.894 177.115 129.272 176.499 129.496C175.743 129.776 174.903 129.944 173.979 130C173.083 130.084 172.229 130.084 171.417 130C170.605 129.944 169.919 129.818 169.359 129.622C168.799 129.426 168.491 129.202 168.435 128.95C168.463 130.266 168.477 131.33 168.477 132.142C168.477 132.954 168.477 133.598 168.477 134.074C168.477 134.578 168.463 134.956 168.435 135.208C168.435 135.488 168.421 135.74 168.393 135.964C168.393 136.216 168.379 136.482 168.351 136.762ZM173.559 124.456C174.259 123.952 174.679 123.21 174.819 122.23C174.959 121.838 175.043 121.432 175.071 121.012C175.099 120.592 175.113 120.186 175.113 119.794C175.113 119.094 175.029 118.422 174.861 117.778C174.693 117.106 174.441 116.518 174.105 116.014C173.769 115.482 173.363 115.062 172.887 114.754C172.411 114.446 171.879 114.292 171.291 114.292C170.563 114.292 170.003 114.446 169.611 114.754C169.219 115.062 168.911 115.482 168.687 116.014C168.491 116.546 168.365 117.19 168.309 117.946C168.281 118.702 168.267 119.514 168.267 120.382C168.267 121.474 168.281 122.342 168.309 122.986C168.365 123.602 168.477 124.078 168.645 124.414C168.813 124.75 169.065 124.974 169.401 125.086C169.765 125.17 170.241 125.212 170.829 125.212C171.977 125.212 172.887 124.96 173.559 124.456ZM185.103 108.874C185.747 108.902 186.517 108.902 187.413 108.874H188.127V109C188.099 112.388 188.029 115.846 187.917 119.374C187.833 122.902 187.889 126.36 188.085 129.748C187.945 129.916 187.595 130 187.035 130C186.475 130.028 185.859 130.028 185.187 130C184.543 130 183.927 129.986 183.339 129.958C182.751 129.93 182.359 129.944 182.163 130C182.303 128.236 182.359 126.444 182.331 124.624C182.331 122.804 182.303 120.998 182.247 119.206C182.191 117.414 182.163 115.65 182.163 113.914C182.163 112.15 182.247 110.442 182.415 108.79V108.748C182.527 108.72 182.709 108.72 182.961 108.748C183.241 108.776 183.451 108.79 183.591 108.79C183.955 108.818 184.459 108.846 185.103 108.874ZM182.289 102.994C182.233 102.098 182.219 101.006 182.247 99.718L187.959 99.844C187.959 100.012 187.959 100.32 187.959 100.768C187.987 101.188 188.001 101.664 188.001 102.196C188.029 102.7 188.043 103.232 188.043 103.792C188.071 104.324 188.085 104.8 188.085 105.22C187.973 105.388 187.707 105.5 187.287 105.556C186.895 105.612 186.419 105.64 185.859 105.64C185.327 105.612 184.753 105.584 184.137 105.556C183.521 105.5 182.947 105.486 182.415 105.514C182.415 104.702 182.373 103.862 182.289 102.994ZM195.521 99.424C195.997 99.424 196.417 99.452 196.781 99.508V108.706C196.781 109.63 196.753 110.61 196.697 111.646C196.669 112.682 196.697 113.522 196.781 114.166C197.257 113.746 197.663 113.284 197.999 112.78C198.363 112.276 198.699 111.772 199.007 111.268C199.315 110.736 199.623 110.204 199.931 109.672C200.267 109.14 200.645 108.636 201.065 108.16C201.429 108.3 201.905 108.384 202.493 108.412C203.081 108.412 203.683 108.412 204.299 108.412C204.943 108.384 205.573 108.356 206.189 108.328C206.805 108.272 207.309 108.258 207.701 108.286C206.665 109.882 205.545 111.464 204.341 113.032C203.137 114.572 201.947 116.126 200.771 117.694C202.031 119.738 203.291 121.768 204.551 123.784C205.839 125.772 207.015 127.844 208.079 130C207.687 130 207.183 130.014 206.567 130.042C205.979 130.098 205.363 130.14 204.719 130.168C204.075 130.196 203.445 130.196 202.829 130.168C202.241 130.14 201.737 130.084 201.317 130C200.897 129.328 200.505 128.642 200.141 127.942C199.805 127.242 199.469 126.556 199.133 125.884C198.797 125.184 198.433 124.498 198.041 123.826C197.677 123.154 197.257 122.51 196.781 121.894C196.781 122.398 196.795 122.986 196.823 123.658C196.851 124.33 196.865 125.03 196.865 125.758C196.865 126.486 196.851 127.228 196.823 127.984C196.795 128.712 196.725 129.384 196.613 130C196.305 129.972 195.913 129.972 195.437 130C194.989 130 194.513 130.014 194.009 130.042C193.505 130.07 192.987 130.084 192.455 130.084C191.951 130.084 191.489 130.056 191.069 130C190.873 124.792 190.831 119.682 190.943 114.67C191.055 109.658 191.097 104.604 191.069 99.508C191.489 99.508 191.951 99.508 192.455 99.508C192.987 99.48 193.505 99.466 194.009 99.466C194.541 99.438 195.045 99.424 195.521 99.424ZM214.513 119.584C213.897 119.556 213.449 119.514 213.169 119.458V120.214C213.197 121.054 213.225 121.74 213.253 122.272C213.309 122.804 213.491 123.322 213.799 123.826C214.135 124.47 214.611 124.946 215.227 125.254C215.843 125.562 216.445 125.66 217.033 125.548C217.621 125.436 218.111 125.1 218.503 124.54C218.923 123.952 219.105 123.084 219.049 121.936C219.329 121.964 219.707 121.978 220.183 121.978C220.659 121.95 221.149 121.922 221.653 121.894C222.185 121.866 222.689 121.866 223.165 121.894C223.641 121.894 224.033 121.936 224.341 122.02C224.285 122.748 224.229 123.462 224.173 124.162C224.117 124.862 224.047 125.52 223.963 126.136C223.879 126.724 223.767 127.242 223.627 127.69C223.515 128.11 223.361 128.404 223.165 128.572C222.689 129.244 222.073 129.72 221.317 130C220.561 130.28 219.735 130.448 218.839 130.504C217.943 130.56 217.019 130.56 216.067 130.504C215.143 130.448 214.289 130.42 213.505 130.42C212.721 130.308 211.993 130.056 211.321 129.664C210.565 129.132 209.935 128.446 209.431 127.606C208.927 126.738 208.521 125.8 208.213 124.792C207.905 123.756 207.695 122.664 207.583 121.516C207.471 120.368 207.443 119.22 207.499 118.072C207.583 117.036 207.667 116.042 207.751 115.09C207.863 114.11 208.087 113.158 208.423 112.234C208.787 111.422 209.347 110.736 210.103 110.176C210.859 109.588 211.713 109.154 212.665 108.874C213.617 108.566 214.625 108.398 215.689 108.37C216.753 108.342 217.789 108.454 218.797 108.706C220.085 108.93 221.121 109.378 221.905 110.05C222.689 110.722 223.277 111.534 223.669 112.486C224.089 113.438 224.341 114.488 224.425 115.636C224.509 116.784 224.509 117.946 224.425 119.122C224.229 119.178 223.851 119.234 223.291 119.29C222.759 119.346 222.115 119.402 221.359 119.458C220.631 119.514 219.847 119.556 219.007 119.584C218.167 119.612 217.355 119.626 216.571 119.626C215.815 119.626 215.129 119.612 214.513 119.584ZM219.427 114.082C219.147 113.578 218.755 113.2 218.251 112.948C218.027 112.808 217.803 112.71 217.579 112.654C217.355 112.57 217.089 112.528 216.781 112.528C216.109 112.528 215.563 112.598 215.143 112.738C214.723 112.878 214.387 113.074 214.135 113.326C213.883 113.578 213.687 113.872 213.547 114.208C213.435 114.544 213.351 114.894 213.295 115.258C213.239 115.566 213.211 115.79 213.211 115.93C213.239 116.042 213.379 116.126 213.631 116.182C213.883 116.21 214.275 116.224 214.807 116.224C215.367 116.196 216.179 116.182 217.243 116.182C217.971 116.182 218.517 116.196 218.881 116.224C219.245 116.252 219.497 116.266 219.637 116.266C219.805 116.238 219.889 116.196 219.889 116.14C219.889 116.056 219.889 115.902 219.889 115.678C219.889 115.118 219.735 114.586 219.427 114.082ZM232.335 110.218C232.335 110.526 232.349 110.876 232.377 111.268C232.517 111.184 232.685 111.086 232.881 110.974C233.105 110.862 233.287 110.75 233.427 110.638C234.015 110.218 234.673 109.882 235.401 109.63C236.129 109.378 236.871 109.238 237.627 109.21C238.411 109.182 239.167 109.266 239.895 109.462C240.623 109.658 241.281 110.008 241.869 110.512C242.149 110.764 242.359 111.296 242.499 112.108C242.667 112.892 242.765 113.844 242.793 114.964C242.849 116.084 242.863 117.316 242.835 118.66C242.835 119.976 242.821 121.32 242.793 122.692C242.765 124.036 242.737 125.338 242.709 126.598C242.681 127.858 242.695 128.964 242.751 129.916C241.771 130.056 240.889 130.112 240.105 130.084C239.349 130.084 238.481 130.084 237.501 130.084C237.445 129.44 237.417 128.712 237.417 127.9C237.417 127.088 237.417 126.248 237.417 125.38C237.445 124.512 237.445 123.644 237.417 122.776C237.417 121.908 237.389 121.096 237.333 120.34C237.305 120.004 237.277 119.64 237.249 119.248C237.221 118.828 237.165 118.422 237.081 118.03C237.025 117.638 236.927 117.288 236.787 116.98C236.675 116.672 236.507 116.434 236.283 116.266C236.255 116.238 236.227 116.224 236.199 116.224C236.171 116.224 236.143 116.21 236.115 116.182C235.891 116.07 235.555 115.986 235.107 115.93C234.687 115.846 234.267 115.874 233.847 116.014C233.427 116.126 233.049 116.378 232.713 116.77C232.377 117.134 232.181 117.694 232.125 118.45C232.069 119.43 232.055 120.396 232.083 121.348C232.111 122.272 232.139 123.21 232.167 124.162C232.223 125.086 232.251 126.01 232.251 126.934C232.251 127.858 232.195 128.782 232.083 129.706V129.874C231.607 130.014 231.187 130.098 230.823 130.126C230.487 130.154 230.137 130.154 229.773 130.126C229.409 130.126 229.003 130.112 228.555 130.084C228.107 130.056 227.547 130.07 226.875 130.126C226.875 126.682 226.833 123.238 226.749 119.794C226.693 116.35 226.721 112.78 226.833 109.084C227.169 109.112 227.449 109.14 227.673 109.168C227.897 109.168 228.107 109.168 228.303 109.168C228.499 109.168 228.709 109.168 228.933 109.168C229.157 109.14 229.437 109.112 229.773 109.084C229.885 109.084 230.081 109.07 230.361 109.042C230.641 108.986 230.921 108.944 231.201 108.916C231.481 108.888 231.733 108.888 231.957 108.916C232.181 108.916 232.293 108.958 232.293 109.042C232.349 109.518 232.363 109.91 232.335 110.218ZM245.7 112.108C245.868 111.576 245.994 111.156 246.078 110.848C246.274 110.428 246.582 110.064 247.002 109.756C247.45 109.448 247.954 109.196 248.514 109C249.102 108.776 249.718 108.622 250.361 108.538C251.034 108.454 251.706 108.412 252.378 108.412C252.938 108.468 253.47 108.482 253.974 108.454C254.506 108.398 255.066 108.398 255.654 108.454C256.55 108.51 257.404 108.692 258.216 109C259.028 109.28 259.728 109.7 260.316 110.26C260.708 110.512 261.016 110.918 261.24 111.478C261.464 112.038 261.632 112.696 261.744 113.452C261.856 114.18 261.926 114.992 261.954 115.888C261.982 116.756 262.01 117.652 262.038 118.576C262.01 119.388 261.968 120.312 261.912 121.348C261.884 122.384 261.814 123.378 261.702 124.33C261.618 125.282 261.492 126.136 261.324 126.892C261.184 127.648 260.974 128.166 260.694 128.446C260.218 129.118 259.588 129.594 258.804 129.874C258.048 130.154 257.222 130.322 256.326 130.378C255.43 130.462 254.506 130.462 253.554 130.378C252.602 130.322 251.734 130.294 250.95 130.294C249.522 130.042 248.318 129.426 247.338 128.446C246.582 127.774 246.064 126.934 245.784 125.926C245.504 124.918 245.336 123.868 245.28 122.776C245.224 121.656 245.21 120.536 245.238 119.416C245.294 118.296 245.28 117.274 245.196 116.35C245.196 115.846 245.21 115.356 245.238 114.88C245.266 114.376 245.322 113.858 245.406 113.326C245.434 113.018 245.532 112.612 245.7 112.108ZM252.756 114.88C252.168 115.048 251.692 115.356 251.328 115.804C251.16 115.916 251.034 116.196 250.95 116.644C250.838 117.54 250.782 118.436 250.782 119.332C250.782 120.2 250.754 121.124 250.698 122.104C250.67 122.748 250.838 123.252 251.202 123.616C251.566 123.952 252 124.19 252.504 124.33C253.036 124.442 253.582 124.47 254.142 124.414C254.702 124.33 255.164 124.19 255.528 123.994C256.004 123.77 256.326 123.308 256.494 122.608C256.606 121.712 256.69 120.816 256.746 119.92C256.83 118.996 256.788 118.128 256.62 117.316C256.48 116.336 256.074 115.622 255.402 115.174C254.73 114.726 253.848 114.628 252.756 114.88ZM268.39 129.916H268.306L265.156 129.958C265.072 129.958 265.03 129.776 265.03 129.412C265.03 129.048 265.044 128.614 265.072 128.11C265.1 127.578 265.142 127.032 265.198 126.472C265.254 125.912 265.282 125.436 265.282 125.044V125.002C265.618 124.862 265.996 124.778 266.416 124.75C266.836 124.722 267.27 124.722 267.718 124.75C268.194 124.778 268.656 124.82 269.104 124.876C269.552 124.904 269.986 124.918 270.406 124.918C270.378 125.702 270.35 126.542 270.322 127.438C270.294 128.306 270.28 129.146 270.28 129.958H269.986C269.65 129.958 269.37 129.958 269.146 129.958C268.95 129.93 268.698 129.916 268.39 129.916ZM264.82 106.186C264.848 104.31 264.918 102.42 265.03 100.516H265.156C265.884 100.46 266.724 100.376 267.676 100.264C268.656 100.152 269.538 100.208 270.322 100.432C270.266 104.016 270.21 107.726 270.154 111.562C270.126 115.37 270.196 119.066 270.364 122.65C269.636 122.734 268.754 122.79 267.718 122.818C266.682 122.818 265.758 122.832 264.946 122.86H264.904C264.932 121.012 264.932 119.164 264.904 117.316C264.904 115.468 264.89 113.62 264.862 111.772C264.834 109.924 264.82 108.062 264.82 106.186Z" fill="white"/>
</svg>
